<svg width="741" height="351" viewBox="0 0 741 351" fill="none" xmlns="http://www.w3.org/2000/svg">
<path d="M345.7 336V334.5C350.65 334.5 353.2 331.2 353.2 324.45V283.2H305.95V324.45C305.95 331.2 308.5 334.5 313.45 334.5V336C307.9 335.7 304.15 335.4 297.85 335.4C291.25 335.4 287.5 335.7 281.95 336V334.5C286.9 334.5 289.45 331.2 289.45 324.45V242.4C289.45 235.8 286.9 232.5 281.95 232.5V231C287.5 231.3 291.25 231.6 297.85 231.6C304.15 231.6 307.9 231.3 313.45 231V232.5C308.5 232.5 305.95 235.8 305.95 242.4V280.95H353.2V242.4C353.2 235.8 350.65 232.5 345.7 232.5V231C351.25 231.3 355 231.6 361.6 231.6C367.9 231.6 371.65 231.3 377.2 231V232.5C372.25 232.5 369.7 235.8 369.7 242.4V324.45C369.7 331.2 372.25 334.5 377.2 334.5V336C371.65 335.7 367.9 335.4 361.6 335.4C355 335.4 351.25 335.7 345.7 336Z" fill="#FF0000"/>
<path d="M383 283.35C383 251.1 404.15 229.5 435.65 229.5C467.15 229.5 488.15 251.1 488.15 283.5C488.15 315.9 467.15 337.5 435.65 337.5C404.15 337.5 383 315.75 383 283.35ZM400.25 283.35C400.25 314.25 414.5 335.25 435.8 335.25C456.8 335.25 470.9 314.4 470.9 283.05C470.9 252.15 457.25 231.75 435.95 231.75C414.65 231.75 400.25 252.15 400.25 283.35ZM500.956 304.8V242.4C500.956 235.8 498.406 232.5 493.456 232.5V231C499.006 231.3 503.056 231.6 509.356 231.6C515.956 231.6 519.556 231.3 524.956 231V232.5C520.006 232.5 517.456 235.8 517.456 242.4V305.85C517.456 321.3 528.556 331.65 544.756 331.65C561.856 331.65 572.806 320.4 572.806 303V242.4C572.806 238.05 569.956 234.75 564.256 232.5V231C568.006 231.3 570.106 231.6 574.156 231.6C577.906 231.6 580.006 231.3 583.756 231V232.5C577.906 234.75 575.056 238.05 575.056 242.4V304.8C575.056 324.45 560.656 337.5 538.456 337.5C516.256 337.5 500.956 324.45 500.956 304.8ZM649.083 257.85C643.983 245.1 633.483 232.5 618.633 232.5C607.983 232.5 599.433 239.7 599.433 249C599.433 255 603.183 260.4 610.083 264.6C620.433 271.2 634.533 273.75 646.533 282.6C655.533 289.35 659.883 296.85 659.883 306.15C659.883 324.75 642.633 338.25 619.683 337.65C603.633 337.2 593.433 330.3 589.683 330.3C586.983 330.3 586.383 333.9 586.233 336H584.283C584.583 329.4 584.883 325.8 584.883 319.35C584.883 312.75 584.583 309 584.283 303H586.233C592.233 323.1 605.133 335.25 620.283 335.25C633.933 335.25 644.133 325.65 644.133 312.75C644.133 306.3 641.583 301.65 635.283 296.55C624.333 288.15 610.233 285.3 597.333 276.9C587.283 270.3 583.083 263.85 583.233 255C583.533 239.7 596.583 229.5 615.333 229.5C627.633 229.5 634.233 233.7 637.683 235.65C640.383 237 642.633 237.75 644.283 237.75C647.433 237.75 648.933 235.5 649.083 231H651.033C650.733 236.25 650.433 239.25 650.433 244.5C650.433 250.05 650.733 252.75 651.033 257.85H649.083ZM737.003 308.85H739.253C738.953 313.95 738.653 316.95 738.653 322.35C738.653 327.75 738.953 330.6 739.253 336H728.903L710.753 335.7H700.403C685.253 335.7 676.553 336 665.153 336V334.5C670.103 334.5 672.653 331.2 672.653 324.45V242.4C672.653 235.8 670.103 232.5 665.153 232.5V231C675.953 231 684.353 231.3 698.603 231.3C712.853 231.3 721.103 231 736.253 231C735.953 235.65 735.653 238.35 735.653 243C735.653 247.95 735.953 250.5 736.253 255H734.153C734.153 240.6 724.703 233.4 705.653 233.4H695.903C691.403 233.4 689.153 235.65 689.153 240V280.2H698.003C704.603 280.2 708.953 276.6 710.903 269.25H712.853C712.553 273.9 712.253 276.6 712.253 281.25C712.253 286.05 712.553 288.6 712.853 293.4H710.903C708.953 286.05 704.603 282.45 698.003 282.45H689.153V327.75C689.153 331.65 691.403 333.6 696.053 333.6H708.653C727.553 333.6 737.003 325.35 737.003 308.85Z" fill="white"/>
<path d="M83.25 143.75C83.25 156.95 72.9 167.6 57.9 171.5C70.5 174.05 75.9 188.45 79.35 199.25C82.35 208.4 83.1 214.4 86.4 217.25C87.45 218.15 88.65 218.6 89.85 218.6C92.1 218.6 94.5 217.1 96.3 214.25L96.75 216.5C93.45 222.2 88.05 225.5 81.6 225.65C69.6 225.8 65.7 214.25 63.15 204.5C61.05 196.55 58.35 190.25 54.75 184.25C49.5 175.7 45.45 173 39.15 173H28.95V212.45C28.95 219.2 31.5 222.5 36.45 222.5V224C30 223.7 26.25 223.4 19.8 223.4C13.35 223.4 9.75 223.7 4.95 224V222.5C9.9 222.5 12.45 219.2 12.45 212.45V130.4C12.45 123.8 9.9 120.5 4.95 120.5V119C6.3 119.15 8.85 119.15 12.6 119.15C16.35 119.3 19.8 119.3 22.95 119.3C29.55 119.3 36.75 119 41.7 119C68.25 119 83.25 128 83.25 143.75ZM28.95 170.75H42.6C55.2 170.75 66 158.3 66 143.6C66 129.95 56.55 121.25 41.85 121.25H32.55C30.15 121.25 28.95 122.6 28.95 125.15V170.75ZM170.843 196.85H173.093C172.793 201.95 172.493 204.95 172.493 210.35C172.493 215.75 172.793 218.6 173.093 224H162.743L144.593 223.7H134.243C119.093 223.7 110.393 224 98.993 224V222.5C103.943 222.5 106.493 219.2 106.493 212.45V130.4C106.493 123.8 103.943 120.5 98.993 120.5V119C109.793 119 118.193 119.3 132.443 119.3C146.693 119.3 154.943 119 170.093 119C169.793 123.65 169.493 126.35 169.493 131C169.493 135.95 169.793 138.5 170.093 143H167.993C167.993 128.6 158.543 121.4 139.493 121.4H129.743C125.243 121.4 122.993 123.65 122.993 128V168.2H131.843C138.443 168.2 142.793 164.6 144.743 157.25H146.693C146.393 161.9 146.093 164.6 146.093 169.25C146.093 174.05 146.393 176.6 146.693 181.4H144.743C142.793 174.05 138.443 170.45 131.843 170.45H122.993V215.75C122.993 219.65 125.243 221.6 129.893 221.6H142.493C161.393 221.6 170.843 213.35 170.843 196.85ZM179.706 224V222.5C184.656 222.5 187.206 219.2 187.206 212.45V130.4C187.206 123.8 184.656 120.5 179.706 120.5V119C181.656 119.15 184.956 119.15 189.606 119.15C194.256 119.3 198.456 119.3 202.506 119.3C210.906 119.3 219.906 119 226.056 119C256.206 119 276.156 140 276.156 171.65C276.156 203.3 256.206 224 226.056 224C219.906 224 210.906 223.7 202.506 223.7H189.456C184.806 223.85 181.506 223.85 179.706 224ZM225.606 121.4H210.006C205.806 121.4 203.706 123.5 203.706 127.55V215.45C203.706 219.5 205.806 221.6 209.856 221.6H225.606C245.856 221.6 258.906 201.35 258.906 171.2C258.906 141.05 245.856 121.4 225.606 121.4ZM383.148 171.35C383.148 139.1 404.298 117.5 435.798 117.5C467.298 117.5 488.298 139.1 488.298 171.5C488.298 203.9 467.298 225.5 435.798 225.5C404.298 225.5 383.148 203.75 383.148 171.35ZM400.398 171.35C400.398 202.25 414.648 223.25 435.948 223.25C456.948 223.25 471.048 202.4 471.048 171.05C471.048 140.15 457.398 119.75 436.098 119.75C414.798 119.75 400.398 140.15 400.398 171.35ZM496.234 171.35C496.234 139.1 517.384 117.5 548.884 117.5C580.384 117.5 601.384 139.1 601.384 171.5C601.384 203.9 580.384 225.5 548.884 225.5C517.384 225.5 496.234 203.75 496.234 171.35ZM513.484 171.35C513.484 202.25 527.734 223.25 549.034 223.25C570.034 223.25 584.134 202.4 584.134 171.05C584.134 140.15 570.484 119.75 549.184 119.75C527.884 119.75 513.484 140.15 513.484 171.35ZM607.44 224V222.5C612.39 222.5 614.94 219.2 614.94 212.45V130.4C614.94 123.8 612.39 120.5 607.44 120.5V119C609.39 119.15 612.69 119.15 617.34 119.15C621.99 119.3 626.19 119.3 630.24 119.3C638.64 119.3 647.64 119 653.79 119C683.94 119 703.89 140 703.89 171.65C703.89 203.3 683.94 224 653.79 224C647.64 224 638.64 223.7 630.24 223.7H617.19C612.54 223.85 609.24 223.85 607.44 224ZM653.34 121.4H637.74C633.54 121.4 631.44 123.5 631.44 127.55V215.45C631.44 219.5 633.54 221.6 637.59 221.6H653.34C673.59 221.6 686.64 201.35 686.64 171.2C686.64 141.05 673.59 121.4 653.34 121.4Z" fill="white"/>
<path d="M345.848 224V222.5C350.798 222.5 353.348 219.2 353.348 212.45V171.2H306.098V212.45C306.098 219.2 308.648 222.5 313.598 222.5V224C308.048 223.7 304.298 223.4 297.998 223.4C291.398 223.4 287.648 223.7 282.098 224V222.5C287.048 222.5 289.598 219.2 289.598 212.45V130.4C289.598 123.8 287.048 120.5 282.098 120.5V119C287.648 119.3 291.398 119.6 297.998 119.6C304.298 119.6 308.048 119.3 313.598 119V120.5C308.648 120.5 306.098 123.8 306.098 130.4V168.95H353.348V130.4C353.348 123.8 350.798 120.5 345.848 120.5V119C351.398 119.3 355.148 119.6 361.748 119.6C368.048 119.6 371.798 119.3 377.348 119V120.5C372.398 120.5 369.848 123.8 369.848 130.4V212.45C369.848 219.2 372.398 222.5 377.348 222.5V224C371.798 223.7 368.048 223.4 361.748 223.4C355.148 223.4 351.398 223.7 345.848 224Z" fill="#FF0000"/>
<path d="M274.6 34C274.6 17.8 264.25 9.69999 243.4 9.69999H241.9V100.45C241.9 107.2 244.45 110.5 249.4 110.5V112C244.6 111.7 241 111.4 234.7 111.4C228.25 111.4 224.35 111.7 217.9 112V110.5C222.85 110.5 225.4 107.2 225.4 100.45V9.69999H224.05C203.2 9.69999 192.7 17.8 192.7 34H190.45C190.75 28.9 191.05 26.05 191.05 20.5C191.05 15.25 190.75 12.25 190.45 6.99999C207.55 7.14999 217.3 7.3 234.55 7.3C251.5 7.3 261.25 7.14999 276.7 6.99999C276.4 12.25 276.1 15.25 276.1 20.5C276.1 26.05 276.4 28.9 276.7 34H274.6ZM458.988 84.85H461.238C460.938 89.95 460.638 92.95 460.638 98.35C460.638 103.75 460.938 106.6 461.238 112H450.888L432.738 111.7H422.388C407.238 111.7 398.538 112 387.137 112V110.5C392.087 110.5 394.638 107.2 394.638 100.45V18.4C394.638 11.8 392.087 8.49999 387.137 8.49999V6.99999C397.938 6.99999 406.338 7.3 420.588 7.3C434.838 7.3 443.088 6.99999 458.238 6.99999C457.937 11.65 457.638 14.35 457.638 19C457.638 23.95 457.937 26.5 458.238 31H456.138C456.138 16.6 446.688 9.4 427.638 9.4H417.888C413.388 9.4 411.138 11.65 411.138 16V56.2H419.988C426.588 56.2 430.938 52.6 432.888 45.25H434.838C434.538 49.9 434.238 52.6 434.238 57.25C434.238 62.05 434.538 64.6 434.838 69.4H432.888C430.938 62.05 426.588 58.45 419.988 58.45H411.138V103.75C411.138 107.65 413.388 109.6 418.038 109.6H430.638C449.538 109.6 458.988 101.35 458.988 84.85Z" fill="white"/>
<path d="M345.858 112V110.5C350.808 110.5 353.358 107.2 353.358 100.45V59.2H306.108V100.45C306.108 107.2 308.658 110.5 313.608 110.5V112C308.058 111.7 304.308 111.4 298.008 111.4C291.408 111.4 287.658 111.7 282.108 112V110.5C287.058 110.5 289.608 107.2 289.608 100.45V18.4C289.608 11.8 287.058 8.49999 282.108 8.49999V6.99999C287.658 7.3 291.408 7.59999 298.008 7.59999C304.308 7.59999 308.058 7.3 313.608 6.99999V8.49999C308.658 8.49999 306.108 11.8 306.108 18.4V56.95H353.358V18.4C353.358 11.8 350.808 8.49999 345.858 8.49999V6.99999C351.408 7.3 355.158 7.59999 361.758 7.59999C368.058 7.59999 371.808 7.3 377.358 6.99999V8.49999C372.408 8.49999 369.858 11.8 369.858 18.4V100.45C369.858 107.2 372.408 110.5 377.358 110.5V112C371.808 111.7 368.058 111.4 361.758 111.4C355.158 111.4 351.408 111.7 345.858 112Z" fill="#FF0000"/>
</svg>
